HIERARCHY
ROOT Hips
{
  OFFSET 0.000000 0.000000 0.000000
  CHANNELS 6 Xposition Yposition Zposition Zrotation Yrotation Xrotation
  JOINT Spine
  {
    OFFSET -0.021080 2.075730 -0.169808
    CHANNELS 3 Zrotation Yrotation Xrotation
    JOINT Spine1
    {
      OFFSET 0.050701 2.084387 -0.031413
      CHANNELS 3 Zrotation Yrotation Xrotation
      JOINT Spine2
      {
        OFFSET 0.059950 2.095031 0.048503
        CHANNELS 3 Zrotation Yrotation Xrotation
        JOINT Neck
        {
          OFFSET -0.107307 1.604075 0.313698
          CHANNELS 3 Zrotation Yrotation Xrotation
          JOINT Head
          {
            OFFSET 0.039111 1.691495 -0.141461
            CHANNELS 3 Zrotation Yrotation Xrotation
            End Site
            {
              OFFSET 0 0 0
            }
          }
        }
        JOINT LeftShoulder
        {
          OFFSET 3.523153 0.732192 -0.546943
          CHANNELS 3 Zrotation Yrotation Xrotation
          JOINT LeftArm
          {
            OFFSET 5.324620 -0.000000 -0.000000
            CHANNELS 3 Zrotation Yrotation Xrotation
            JOINT LeftForeArm
            {
              OFFSET 3.484020 -0.000000 -0.000000
              CHANNELS 3 Zrotation Yrotation Xrotation
              JOINT LeftHand
              {
                OFFSET 0.572476 -0.000000 -0.000000
                CHANNELS 3 Zrotation Yrotation Xrotation
                JOINT LeftHandIndex1
                {
                  OFFSET 0.461545 -0.000000 -0.000000
                  CHANNELS 3 Zrotation Yrotation Xrotation
                  End Site
                  {
                    OFFSET 0 0 0
                  }
                }
              }
            }
          }
        }
        JOINT RightShoulder
        {
          OFFSET -3.417658 0.935924 -0.100189
          CHANNELS 3 Zrotation Yrotation Xrotation
          JOINT RightArm
          {
            OFFSET -5.335890 -0.000000 -0.000000
            CHANNELS 3 Zrotation Yrotation Xrotation
            JOINT RightForeArm
            {
              OFFSET -3.641340 -0.000000 -0.000000
              CHANNELS 3 Zrotation Yrotation Xrotation
              JOINT RightHand
              {
                OFFSET -0.734811 -0.000000 -0.000000
                CHANNELS 3 Zrotation Yrotation Xrotation
                JOINT RightHandIndex1
                {
                  OFFSET -0.592424 -0.000000 -0.000000
                  CHANNELS 3 Zrotation Yrotation Xrotation
                  End Site
                  {
                    OFFSET 0 0 0
                  }
                }
              }
            }
          }
        }
      }
    }
  }
  JOINT LeftUpLeg
  {
    OFFSET 2.571388 -7.064838 0.000000
    CHANNELS 3 Zrotation Yrotation Xrotation
    JOINT LeftLeg
    {
      OFFSET 2.520174 -6.924128 0.000000
      CHANNELS 3 Zrotation Yrotation Xrotation
      JOINT LeftFoot
      {
        OFFSET 0.232946 -0.640014 2.102138
        CHANNELS 3 Zrotation Yrotation Xrotation
        JOINT LeftToeBase
        {
          OFFSET 0.000000 -0.000000 1.101390
          CHANNELS 3 Zrotation Yrotation Xrotation
          End Site
          {
            OFFSET 0 0 0
          }
        }
      }
    }
  }
  JOINT RightUpLeg
  {
    OFFSET -2.632579 -7.232958 0.000000
    CHANNELS 3 Zrotation Yrotation Xrotation
    JOINT RightLeg
    {
      OFFSET -2.547789 -6.999999 0.000000
      CHANNELS 3 Zrotation Yrotation Xrotation
      JOINT RightFoot
      {
        OFFSET -0.230669 -0.633756 2.121613
        CHANNELS 3 Zrotation Yrotation Xrotation
        JOINT RightToeBase
        {
          OFFSET -0.000000 -0.000000 1.110000
          CHANNELS 3 Zrotation Yrotation Xrotation
          End Site
          {
            OFFSET 0 0 0
          }
        }
      }
    }
  }
}
MOTION
Frames: 16
Frame Time: 0.00833333
-0.679606 17.512300 4.695550 3.111880 -35.532800 0.469098 -26.056400 -1.496720 -3.325660 0.000000 0.000000 29.160300 4.441820 0.000000 -18.698100 0.000000 0.000000 -11.082400 18.880500 -2.087430 -21.217000 0.000000 0.000000 41.494400 -11.256300 0.000000 -22.814200 0.000000 0.000000 9.402710 -6.600750 -1.197290 0.285657 2.179390 -1.629730 -0.577342 5.981860 -0.781331 -0.510031 -13.723200 -4.420320 -18.496900 3.343440 -2.630570 13.859200 0.000000 0.000000 0.000000 80.739500 16.568800 -33.969700 0.000000 0.000000 23.419500 23.301900 0.000000 -17.585900 0.000000 0.000000 7.125020 0.000000 0.000000 0.000000 -71.090800 -18.099900 -37.503600 0.000000 0.000000 27.178600 4.877490 0.000000 -23.051900 0.000000 0.000000 7.125020
-0.696539 17.518300 4.696980 3.085260 -35.443600 0.529584 -25.968800 -1.567030 -3.361510 0.000000 0.000000 29.162200 4.359650 0.000000 -18.606100 0.000000 0.000000 -11.127600 18.946700 -2.134430 -21.148000 0.000000 0.000000 41.372600 -11.228300 0.000000 -22.840100 0.000000 0.000000 9.527830 -6.540500 -1.196480 0.342844 2.178200 -1.632390 -0.601027 5.948020 -0.780069 -0.567911 -13.621100 -4.421910 -18.452500 3.303390 -2.635220 13.827500 -0.000000 -0.000000 0.000000 80.866500 16.402000 -33.957700 0.000000 0.000000 23.508400 23.295400 0.000000 -17.592600 0.000000 0.000000 7.125020 -0.000000 -0.000000 0.000000 -71.266100 -17.985400 -37.454600 0.000000 0.000000 27.261400 4.587690 0.000000 -23.086900 0.000000 0.000000 7.125020
-0.716917 17.526300 4.702640 3.067740 -35.440900 0.658330 -25.916700 -1.749520 -3.432060 0.000000 0.000000 29.168200 4.344830 0.000000 -18.544800 0.000000 0.000000 -10.188100 18.998000 -2.069330 -21.129500 0.000000 0.000000 41.223100 -11.260800 0.000000 -22.842400 0.000000 0.000000 9.594930 -6.479860 -1.154880 0.169207 2.185530 -1.565090 -0.582287 5.916700 -0.751130 -0.462426 -13.615100 -4.475720 -18.452800 3.285490 -2.665660 13.813600 0.000000 0.000000 0.000000 81.096700 16.205500 -33.770300 0.000000 0.000000 23.484700 23.445400 0.000000 -17.534200 0.000000 0.000000 7.125020 0.000000 0.000000 0.000000 -71.413600 -17.945300 -37.328600 0.000000 0.000000 27.344900 4.322600 0.000000 -22.880500 0.000000 0.000000 7.125020
-0.738403 17.533200 4.707850 2.973740 -35.501500 0.752066 -25.818100 -1.882570 -3.412540 0.000000 0.000000 29.202900 4.409030 0.000000 -18.411600 0.000000 0.000000 -9.138030 19.123500 -1.919190 -21.019200 0.000000 0.000000 41.066000 -11.212800 0.000000 -22.937200 0.000000 0.000000 10.254900 -6.389640 -1.063190 0.045924 2.232780 -1.433560 -0.531945 5.911820 -0.690740 -0.361703 -13.800000 -4.573620 -18.419000 3.345760 -2.720430 13.794200 -0.000000 0.000000 0.000000 81.339800 16.045700 -33.584900 0.000000 0.000000 23.459400 23.461100 0.000000 -17.417400 0.000000 0.000000 7.125020 -0.000000 0.000000 0.000000 -71.646700 -17.620400 -37.175700 0.000000 0.000000 27.499100 3.967310 0.000000 -22.595200 0.000000 0.000000 7.125020
-0.755445 17.539400 4.705330 2.895290 -35.431900 0.803736 -25.688700 -1.950240 -3.417060 0.000000 0.000000 29.229700 4.421480 0.000000 -18.227100 0.000000 0.000000 -9.271430 19.261100 -1.861750 -20.908500 0.000000 0.000000 40.914800 -11.384300 0.000000 -22.856600 0.000000 0.000000 9.797870 -6.300690 -1.018710 0.121688 2.224960 -1.378650 -0.542701 5.854760 -0.660882 -0.425785 -13.818400 -4.630670 -18.185000 3.361940 -2.765210 13.668700 0.000000 0.000000 0.000000 81.506500 15.712100 -33.520300 0.000000 0.000000 23.631600 23.552400 0.000000 -17.364700 0.000000 0.000000 7.125020 0.000000 0.000000 0.000000 -71.905600 -17.390600 -37.098300 0.000000 0.000000 27.614700 3.830190 0.000000 -22.419100 0.000000 0.000000 7.125020
-0.772015 17.546100 4.702300 2.804270 -35.281000 0.929110 -25.522100 -2.014370 -3.519930 0.000000 0.000000 29.268200 4.333630 0.000000 -18.187800 0.000000 0.000000 -9.693000 19.409400 -1.832270 -20.863000 0.000000 0.000000 40.766500 -11.590800 0.000000 -22.831200 0.000000 0.000000 9.320320 -6.187710 -1.048900 0.094309 2.216610 -1.416410 -0.516165 5.780450 -0.682676 -0.380131 -13.834200 -4.656290 -18.037400 3.393230 -2.783150 13.560800 -0.000000 0.000000 0.000000 81.568300 15.606000 -33.372700 0.000000 0.000000 23.790700 23.552000 0.000000 -17.280700 0.000000 0.000000 7.125020 -0.000000 0.000000 0.000000 -72.257100 -17.101900 -36.879200 0.000000 0.000000 27.709900 3.781420 0.000000 -22.322400 0.000000 0.000000 7.125020
-0.791528 17.552100 4.705620 2.808610 -35.186100 1.003800 -25.476600 -2.101320 -3.568140 0.000000 0.000000 29.285800 4.286600 0.000000 -18.153400 0.000000 0.000000 -9.483590 19.459100 -1.799420 -20.806400 0.000000 0.000000 40.633000 -11.702000 0.000000 -22.928900 0.000000 0.000000 9.481760 -6.130760 -1.030010 -0.078129 2.174720 -1.379220 -0.423365 5.699310 -0.673393 -0.194977 -13.842000 -4.727540 -18.160100 3.423530 -2.815430 13.591400 -0.000000 0.000000 0.000000 81.722600 15.372500 -33.124500 0.000000 0.000000 23.890200 23.516600 0.000000 -17.209900 0.000000 0.000000 7.125020 -0.000000 0.000000 0.000000 -72.471000 -17.130300 -36.622900 0.000000 0.000000 27.723300 4.038020 0.000000 -22.236400 0.000000 0.000000 7.125020
-0.809601 17.556800 4.708410 2.755620 -35.119400 1.123200 -25.405200 -2.277280 -3.615450 0.000000 0.000000 29.261300 4.416800 0.000000 -18.144600 0.000000 0.000000 -9.889680 19.558800 -1.751790 -20.784200 0.000000 0.000000 40.522000 -11.776400 0.000000 -23.022700 0.000000 0.000000 9.706750 -6.033140 -0.983714 -0.174155 2.161150 -1.311580 -0.415567 5.627840 -0.641671 -0.145131 -13.782700 -4.784880 -18.215400 3.399300 -2.848880 13.619800 0.000000 -0.000000 0.000000 81.927700 15.060500 -32.936700 0.000000 0.000000 23.925600 23.569500 0.000000 -17.261400 0.000000 0.000000 7.125020 0.000000 -0.000000 0.000000 -72.630600 -17.006000 -36.512400 0.000000 0.000000 27.748000 4.396000 0.000000 -22.284600 0.000000 0.000000 7.125020
-0.827930 17.564000 4.711940 2.812060 -35.059400 1.171920 -25.425400 -2.409670 -3.637990 0.000000 0.000000 29.211200 4.481750 0.000000 -18.043400 0.000000 0.000000 -10.054800 19.555600 -1.734750 -20.776200 0.000000 0.000000 40.427100 -11.894800 0.000000 -22.984600 0.000000 0.000000 9.282240 -6.076160 -0.948776 -0.219208 2.172790 -1.262980 -0.454390 5.664530 -0.615421 -0.165738 -13.769300 -4.820680 -18.054600 3.365340 -2.878250 13.535900 -0.000000 -0.000000 0.000000 82.183600 14.740800 -32.763500 0.000000 0.000000 23.932900 23.666900 0.000000 -17.544300 0.000000 0.000000 7.125020 -0.000000 -0.000000 0.000000 -72.889500 -16.426600 -36.490500 0.000000 0.000000 27.999000 4.279900 0.000000 -22.289700 0.000000 0.000000 7.125020
-0.844957 17.568900 4.717730 2.996680 -34.985100 1.095310 -25.542200 -2.392870 -3.604300 0.000000 0.000000 29.165400 4.369110 0.000000 -17.863000 0.000000 0.000000 -9.787950 19.418400 -1.775820 -20.703400 0.000000 0.000000 40.348800 -11.875700 0.000000 -23.005700 0.000000 0.000000 9.313390 -6.186950 -0.907565 -0.228359 2.143050 -1.207530 -0.465590 5.696870 -0.586534 -0.178587 -13.817500 -4.874990 -17.879100 3.366770 -2.918420 13.448400 0.000000 0.000000 0.000000 82.476500 14.275300 -32.568700 0.000000 0.000000 23.963500 23.565100 0.000000 -17.716800 0.000000 0.000000 7.125020 0.000000 0.000000 0.000000 -73.232200 -15.888900 -36.365600 0.000000 0.000000 28.230600 3.889340 0.000000 -22.086000 0.000000 0.000000 7.125020
-0.859834 17.570500 4.722900 3.077840 -34.901000 1.042020 -25.562700 -2.368100 -3.552200 0.000000 0.000000 29.146200 4.294390 0.000000 -17.815800 0.000000 0.000000 -10.086300 19.372900 -1.799240 -20.592800 0.000000 0.000000 40.271600 -11.864000 0.000000 -23.006300 0.000000 0.000000 9.392520 -6.183280 -0.897356 -0.229666 2.123210 -1.192940 -0.419518 5.673540 -0.582122 -0.132793 -13.902200 -4.908930 -17.849100 3.420520 -2.935540 13.416300 -0.000000 -0.000000 0.000000 82.680400 13.993600 -32.381400 0.000000 0.000000 24.068900 23.432100 0.000000 -17.635500 0.000000 0.000000 7.125020 -0.000000 -0.000000 0.000000 -74.064300 -14.598000 -36.116200 0.000000 0.000000 28.790400 2.754240 0.000000 -21.922500 0.000000 0.000000 7.125020
-0.875012 17.574500 4.726940 3.076120 -34.871900 1.127660 -25.523800 -2.349300 -3.619040 0.000000 0.000000 29.150800 4.314940 0.000000 -17.735500 0.000000 0.000000 -10.684500 19.405900 -1.755730 -20.591400 0.000000 0.000000 40.194900 -11.867400 0.000000 -23.070000 0.000000 0.000000 9.597120 -6.115650 -0.900792 -0.278314 2.130330 -1.194680 -0.417814 5.641540 -0.584198 -0.104618 -13.862700 -4.912070 -17.819700 3.393370 -2.933350 13.354800 0.000000 -0.000000 0.000000 82.771000 13.986800 -32.273200 0.000000 0.000000 24.234900 23.495100 0.000000 -17.400600 0.000000 0.000000 7.125020 0.000000 -0.000000 0.000000 -75.027400 -12.851800 -35.971700 0.000000 0.000000 29.545300 1.523180 0.000000 -21.972700 0.000000 0.000000 7.125020
-0.890720 17.578100 4.725210 3.030350 -34.832600 1.214680 -25.426800 -2.423470 -3.687320 0.000000 0.000000 29.154000 4.277120 0.000000 -17.675500 0.000000 0.000000 -10.462200 19.489900 -1.633200 -20.579700 0.000000 0.000000 40.123100 -11.876900 0.000000 -23.210600 0.000000 0.000000 10.385300 -6.055880 -0.893082 -0.255897 2.157170 -1.185850 -0.420219 5.636100 -0.579255 -0.121556 -13.830700 -4.935080 -17.769600 3.356880 -2.946210 13.298100 -0.000000 0.000000 0.000000 82.861100 14.030800 -32.175300 0.000000 0.000000 24.449500 23.618800 0.000000 -17.082400 0.000000 0.000000 7.125020 -0.000000 0.000000 0.000000 -75.341400 -12.210800 -35.784500 0.000000 0.000000 29.720200 1.766570 0.000000 -21.996100 0.000000 0.000000 7.125020
-0.906222 17.581000 4.723850 2.975270 -34.732500 1.294480 -25.324600 -2.572470 -3.715120 0.000000 0.000000 29.160500 4.251300 0.000000 -17.690500 0.000000 0.000000 -10.135200 19.583300 -1.570500 -20.538700 0.000000 0.000000 40.053100 -11.949300 0.000000 -23.254600 0.000000 0.000000 10.749700 -5.981560 -0.896629 -0.272655 2.177440 -1.189200 -0.388036 5.614300 -0.583450 -0.079412 -13.931600 -4.974560 -17.835000 3.421010 -2.962210 13.320200 -0.000000 0.000000 0.000000 83.085000 13.711100 -32.003200 0.000000 0.000000 24.671200 23.601900 0.000000 -17.124400 0.000000 0.000000 7.125020 -0.000000 0.000000 0.000000 -75.206300 -12.437300 -35.535000 0.000000 0.000000 29.534100 2.918120 0.000000 -21.628100 0.000000 0.000000 7.125020
-0.920387 17.583200 4.727060 3.034330 -34.646200 1.289340 -25.335200 -2.697720 -3.710640 0.000000 0.000000 29.174900 4.243790 0.000000 -17.784800 0.000000 0.000000 -10.192000 19.562000 -1.642350 -20.485200 0.000000 0.000000 39.983400 -12.013100 0.000000 -23.179700 0.000000 0.000000 10.346000 -5.995780 -0.878910 -0.262238 2.201500 -1.165900 -0.372681 5.647860 -0.572439 -0.071924 -14.104200 -5.030190 -17.896600 3.509000 -2.989410 13.365400 -0.000000 -0.000000 0.000000 83.460200 13.157400 -31.799800 0.000000 0.000000 24.821400 23.596800 0.000000 -17.112500 0.000000 0.000000 7.125020 -0.000000 -0.000000 0.000000 -74.956800 -12.677400 -35.329400 0.000000 0.000000 29.377400 4.044600 0.000000 -20.969500 0.000000 0.000000 7.125020
-0.932369 17.583900 4.725670 3.022130 -34.572100 1.367200 -25.255100 -2.766650 -3.802590 0.000000 0.000000 29.210300 4.185120 0.000000 -17.877700 0.000000 0.000000 -10.798000 19.600600 -1.592230 -20.475900 0.000000 0.000000 39.896100 -12.004600 0.000000 -23.302900 0.000000 0.000000 10.505500 -5.966390 -0.874922 -0.231475 2.256060 -1.162750 -0.390705 5.689090 -0.569234 -0.107728 -14.249000 -5.031340 -17.765300 3.561150 -2.990370 13.288500 0.000000 0.000000 0.000000 83.720700 12.915000 -31.664100 0.000000 0.000000 24.957800 23.603200 0.000000 -17.178800 0.000000 0.000000 7.125020 0.000000 0.000000 0.000000 -74.950100 -12.447600 -35.181400 0.000000 0.000000 29.428300 5.027480 0.000000 -20.694200 0.000000 0.000000 7.125020
